368d177821450241820bf3507d74b35a *tests/data/fate/hevc-bsf-dts2pts-idr.mov
346603 tests/data/fate/hevc-bsf-dts2pts-idr.mov
#extradata 0:      699, 0x9c810c10
#tb 0: 1/1200000
#media_type 0: video
#codec_id 0: hevc
#dimensions 0: 832x480
#sar 0: 0/1
0,    -144000,          0,    48000,    31869, 0x95a3c8bb
0,     -96000,     384000,    48000,    21935, 0x9bb336b5, F=0x0
0,     -48000,     192000,    48000,     5864, 0xb2f50830, F=0x0
0,          0,      96000,    48000,     3760, 0x1cb23d8a, F=0x0
0,      48000,      48000,    48000,     1510, 0x3b84b90d, F=0x0
0,      96000,     144000,    48000,     1400, 0xdf676c38, F=0x0
0,     144000,     288000,    48000,     3342, 0xfb263c8a, F=0x0
0,     192000,     240000,    48000,     1333, 0x927c6d5c, F=0x0
0,     240000,     336000,    48000,     1435, 0x3e5696c3, F=0x0
0,     288000,     768000,    48000,    18971, 0x43f7cd73, F=0x0
0,     336000,     576000,    48000,     5704, 0xd9dcd87b, F=0x0
0,     384000,     480000,    48000,     3325, 0xdf6c7700, F=0x0
0,     432000,     432000,    48000,     1432, 0xa0208c4d, F=0x0
0,     480000,     528000,    48000,     1393, 0x125275ad, F=0x0
0,     528000,     672000,    48000,     3303, 0x6aad4730, F=0x0
0,     576000,     624000,    48000,     1112, 0xc790210c, F=0x0
0,     624000,     720000,    48000,      951, 0xbeb4cfc7, F=0x0
0,     672000,    1152000,    48000,    20743, 0xa8c8ec0c, F=0x0
0,     720000,     960000,    48000,     5697, 0xe522cd06, F=0x0
0,     768000,     864000,    48000,     3280, 0x72ab514c, F=0x0
0,     816000,     816000,    48000,     1295, 0xa50d45e3, F=0x0
0,     864000,     912000,    48000,     1328, 0x277b47c1, F=0x0
0,     912000,    1056000,    48000,     3263, 0x9ba82e47, F=0x0
0,     960000,    1008000,    48000,     1354, 0xdbaa775f, F=0x0
0,    1008000,    1104000,    48000,     1416, 0x7f24810d, F=0x0
0,    1056000,    1536000,    48000,    30901, 0x41e117ca
0,    1104000,    1344000,    48000,     8038, 0x572b8898, F=0x0
0,    1152000,    1248000,    48000,     4534, 0xa41bf004, F=0x0
0,    1200000,    1200000,    48000,     1562, 0x16c5fd13, F=0x0
0,    1248000,    1296000,    48000,      990, 0xd6a6e71e, F=0x0
0,    1296000,    1440000,    48000,     3607, 0x5a6debfc, F=0x0
0,    1344000,    1392000,    48000,     1257, 0xff495eb3, F=0x0
0,    1392000,    1488000,    48000,     1190, 0xa3aa4de2, F=0x0
0,    1440000,    1920000,    48000,    18418, 0xdbacc32f, F=0x0
0,    1488000,    1728000,    48000,     4566, 0xdbb2dcfd, F=0x0
0,    1536000,    1632000,    48000,     2578, 0x4fff0eb8, F=0x0
0,    1584000,    1584000,    48000,     1121, 0x8688214f, F=0x0
0,    1632000,    1680000,    48000,      864, 0x72a19f39, F=0x0
0,    1680000,    1824000,    48000,     2208, 0x8e2146e8, F=0x0
0,    1728000,    1776000,    48000,      900, 0x669fb97b, F=0x0
0,    1776000,    1872000,    48000,      817, 0x3eb689e1, F=0x0
0,    1824000,    2256001,    48000,    17919, 0x4e83b301, F=0x0
0,    1872000,    2112000,    48000,     4911, 0x2fc88e1f, F=0x0
0,    1920000,    2016000,    48000,     2717, 0xcc1f551e, F=0x0
0,    1968000,    1968000,    48000,      908, 0x43e1b421, F=0x0
0,    2016000,    2064000,    48000,     1028, 0xf475f21d, F=0x0
0,    2064000,    2208000,    48000,     2857, 0xdeee9614, F=0x0
0,    2112000,    2160000,    48000,     1039, 0x9cf8f494, F=0x0
0,    2160000,    2256000,    48000,      975, 0x0f4ec85b, F=0x0
0,    2208000,    2256011,    48000,    18345, 0xf9dabd3b, F=0x0
0,    2256000,    2256006,        1,     5280, 0xc5c33809, F=0x0
0,    2256001,    2256004,        1,     2755, 0xda955c75, F=0x0
0,    2256002,    2256002,        2,     1027, 0xf652eff3, F=0x0
0,    2256004,    2256005,        1,      901, 0xe23cb716, F=0x0
0,    2256005,    2256008,        1,     3010, 0x783de5cb, F=0x0
0,    2256006,    2256007,        1,     1005, 0x91fcf92f, F=0x0
0,    2256007,    2256010,        1,     1131, 0xd88b2920, F=0x0
0,    2256008,    2256008,        2,    29018, 0xc9b25608
0,    2256010,    2256016,        1,     7436, 0x18344e77, F=0x0
0,    2256011,    2256013,        1,     4050, 0x54fcbee0, F=0x0
0,    2256012,    2256012,        1,     1412, 0xe249bd86, F=0x0
0,    2256013,    2256014,        1,      977, 0xa749dc21, F=0x0
0,    2256014,    2256014,        2,     2953, 0xba90c008, F=0x0
0,    2256016,    2256017,        1,     1004, 0xddebea9a, F=0x0
0,    2256017,    2256017,        1,     1109, 0x7e081570, F=0x0
